<?xml version="1.0" standalone="no"?>
<!DOCTYPE svg PUBLIC "-//W3C//DTD SVG 20010904//EN"
 "http://www.w3.org/TR/2001/REC-SVG-20010904/DTD/svg10.dtd">
<svg version="1.0" xmlns="http://www.w3.org/2000/svg"
 width="512.000000pt" height="512.000000pt" viewBox="0 0 512.000000 512.000000"
 preserveAspectRatio="xMidYMid meet">

<g transform="translate(0.000000,512.000000) scale(0.100000,-0.100000)"
fill="#000000" stroke="none">
<path d="M2060 5109 c-60 -24 -100 -85 -100 -151 0 -43 29 -105 56 -121 11 -6
14 -36 14 -122 l0 -115 -162 0 c-191 0 -272 -14 -373 -64 -165 -82 -289 -236
-330 -408 -22 -94 -22 -1087 0 -1173 22 -86 78 -195 130 -253 l45 -50 -222 -4
c-207 -3 -226 -5 -264 -25 -195 -104 -197 -368 -3 -469 l29 -15 0 -373 0 -374
-30 -12 c-43 -18 -100 -77 -123 -129 -18 -39 -21 -66 -22 -178 0 -125 1 -132
24 -157 30 -32 78 -35 112 -7 22 18 24 28 29 143 5 126 14 159 50 178 46 24
112 -2 129 -51 6 -18 11 -79 11 -136 0 -97 2 -106 25 -128 32 -33 83 -34 113
-2 20 21 22 34 22 151 0 71 -5 146 -12 168 -14 48 -73 117 -122 143 l-36 20 0
367 0 368 179 0 180 0 3 -433 c3 -416 4 -434 24 -477 26 -55 86 -114 138 -135
21 -9 76 -19 122 -22 l83 -6 11 -33 c6 -18 24 -51 41 -73 l29 -41 0 -195 0
-195 -73 0 c-131 0 -234 -38 -319 -118 -85 -79 -137 -190 -139 -294 -2 -55 1
-64 25 -85 l27 -23 514 0 514 0 28 24 28 24 0 212 0 212 -28 24 c-15 13 -35
24 -43 24 -12 0 -14 32 -14 198 0 191 1 199 24 232 12 19 29 52 37 73 l13 37
106 0 106 0 13 -37 c8 -21 25 -54 37 -73 23 -33 24 -41 24 -232 0 -166 -2
-198 -14 -198 -8 0 -28 -11 -43 -24 l-28 -24 0 -212 0 -212 28 -24 28 -24 514
0 514 0 27 23 c24 21 27 30 25 85 -2 104 -54 215 -139 294 -85 80 -188 118
-319 118 l-73 0 0 195 0 195 29 41 c17 22 35 55 41 73 l11 33 83 6 c46 3 101
13 122 22 52 21 112 80 138 135 20 43 21 61 24 478 l3 432 180 0 179 0 0 -368
0 -367 -36 -20 c-49 -26 -108 -95 -122 -143 -7 -22 -12 -98 -12 -169 0 -122 1
-131 23 -151 32 -30 81 -29 112 3 23 22 25 31 25 128 0 57 5 118 11 136 17 49
83 75 129 51 36 -19 45 -52 50 -178 5 -115 7 -125 29 -143 34 -28 82 -25 112
7 23 25 24 32 24 157 -1 112 -4 139 -22 178 -23 52 -80 111 -123 129 l-30 12
0 374 0 373 29 15 c157 82 194 292 71 414 -72 72 -90 76 -338 80 l-222 4 45
50 c52 58 108 167 130 253 22 86 22 1079 0 1173 -41 172 -165 326 -330 408
-101 50 -182 64 -372 64 l-163 0 0 115 c0 86 3 116 14 122 28 16 56 78 56 124
0 116 -125 193 -228 140 -47 -24 -68 -51 -83 -103 -13 -51 4 -112 42 -150 29
-29 29 -31 29 -139 l0 -109 -360 0 -360 0 0 109 c0 108 0 110 29 139 54 54 61
145 16 210 -36 50 -125 75 -185 51z m1428 -697 c118 -37 226 -132 277 -244 36
-79 45 -164 45 -456 0 -296 -3 -309 -69 -361 -147 -115 -452 -204 -826 -242
-154 -15 -556 -15 -710 0 -374 38 -679 127 -826 242 -66 52 -69 65 -69 361 0
144 5 294 10 333 19 129 89 239 197 311 116 77 63 73 1040 73 820 1 875 0 931
-17z m-1846 -1366 c252 -76 570 -116 918 -116 474 0 876 72 1144 205 l109 54
-7 -86 c-8 -113 -29 -180 -77 -252 -64 -95 -150 -156 -266 -186 -86 -22 -1720
-22 -1806 0 -116 30 -202 91 -266 186 -48 72 -69 139 -77 252 l-7 86 109 -54
c60 -30 162 -70 226 -89z m43 -556 c42 -6 390 -10 875 -10 731 0 895 5 963 26
16 5 17 -28 17 -595 0 -444 -3 -607 -12 -626 -26 -57 11 -55 -968 -55 -979 0
-942 -2 -968 55 -9 19 -12 182 -12 626 0 567 1 600 18 595 9 -3 49 -10 87 -16z
m-674 -20 c10 -6 26 -24 35 -41 31 -61 -12 -131 -82 -131 -31 0 -44 7 -67 32
-24 27 -28 39 -23 69 10 64 80 101 137 71z m399 -85 l0 -95 -97 0 -98 0 0 95
0 95 98 0 97 0 0 -95z m2495 0 l0 -95 -97 0 -98 0 0 95 0 95 98 0 97 0 0 -95z
m310 73 c15 -14 28 -38 31 -59 5 -30 1 -42 -23 -69 -72 -80 -198 3 -149 99 9
16 24 35 33 40 31 18 80 12 108 -11z m-1945 -1406 c0 -11 -50 -57 -78 -71 -61
-32 -182 -1 -220 57 l-14 22 156 0 c86 0 156 -4 156 -8z m878 -14 c-38 -58
-159 -89 -220 -57 -28 14 -78 60 -78 71 0 4 70 8 156 8 l156 0 -14 -22z m-938
-375 l0 -143 -95 0 -95 0 0 143 0 142 95 0 95 0 0 -142z m890 0 l0 -143 -95 0
-95 0 0 143 0 142 95 0 95 0 0 -142z m-800 -403 l0 -90 -395 0 c-217 0 -395 2
-395 5 0 19 44 87 72 110 74 63 84 65 416 65 l302 0 0 -90z m1165 71 c56 -25
102 -67 125 -112 11 -21 20 -41 20 -44 0 -3 -178 -5 -395 -5 l-395 0 0 90 0
90 303 0 c271 0 306 -2 342 -19z"/>
<path d="M1795 3775 c-22 -21 -25 -33 -25 -100 0 -67 3 -79 25 -100 32 -33 83
-34 113 -2 19 20 22 35 22 101 0 68 -3 80 -25 101 -15 16 -36 25 -55 25 -19 0
-40 -9 -55 -25z"/>
<path d="M3215 3775 c-22 -21 -25 -33 -25 -103 0 -69 3 -81 23 -100 32 -30 81
-29 112 3 22 21 25 33 25 100 0 67 -3 79 -25 100 -15 16 -36 25 -55 25 -19 0
-40 -9 -55 -25z"/>
<path d="M2426 2175 c-77 -31 -146 -100 -182 -179 -54 -117 -33 -265 52 -365
35 -42 115 -93 170 -109 53 -15 135 -15 188 0 55 16 135 67 170 109 85 100
106 248 52 366 -78 171 -277 249 -450 178z m201 -150 c48 -20 71 -41 94 -87
42 -82 11 -188 -69 -235 -122 -72 -272 14 -272 156 0 127 130 215 247 166z"/>
<path d="M1911 2109 c-48 -19 -50 -30 -51 -255 0 -207 0 -211 23 -232 34 -32
89 -30 116 4 20 25 21 39 21 234 0 201 -1 207 -22 227 -30 27 -57 34 -87 22z"/>
<path d="M3160 2113 c-8 -3 -25 -15 -37 -26 -22 -20 -23 -26 -23 -227 0 -195
1 -209 21 -234 27 -35 86 -36 117 -3 21 22 22 31 22 233 0 198 -1 212 -20 232
-12 12 -25 22 -30 22 -4 0 -14 2 -22 4 -7 3 -20 2 -28 -1z"/>
</g>
</svg>
